<?xml version="1.0" standalone="no"?>
<!DOCTYPE svg PUBLIC "-//W3C//DTD SVG 20010904//EN"
 "http://www.w3.org/TR/2001/REC-SVG-20010904/DTD/svg10.dtd">
<svg version="1.0" xmlns="http://www.w3.org/2000/svg"
 width="1024.000000pt" height="1024.000000pt" viewBox="0 0 1024.000000 1024.000000"
 preserveAspectRatio="xMidYMid meet">
<metadata>
Created by potrace 1.14, written by Peter Selinger 2001-2017
</metadata>
<g transform="translate(0.000000,1024.000000) scale(0.100000,-0.100000)"
fill="#000000" stroke="none">
<path d="M10214 9537 c-6 -7 -33 -31 -60 -54 -27 -22 -58 -49 -69 -60 -11 -10
-49 -43 -85 -73 -36 -30 -70 -59 -76 -65 -21 -19 -271 -236 -668 -579 -32 -28
-69 -60 -81 -71 -25 -22 -28 -25 -190 -165 -61 -52 -112 -97 -115 -100 -3 -3
-34 -30 -70 -60 -36 -30 -78 -67 -95 -81 -16 -15 -73 -64 -125 -109 -52 -45
-108 -94 -125 -109 -16 -15 -131 -114 -255 -221 -124 -107 -274 -237 -335
-290 -60 -52 -123 -106 -139 -120 -17 -14 -51 -43 -76 -66 -25 -22 -94 -82
-155 -134 -60 -52 -112 -97 -115 -100 -3 -3 -36 -32 -75 -65 -38 -33 -72 -62
-75 -65 -5 -6 -196 -170 -244 -211 -16 -13 -34 -29 -40 -35 -6 -6 -101 -88
-211 -183 -233 -201 -383 -332 -399 -346 -6 -5 -43 -37 -81 -70 -39 -33 -72
-62 -75 -65 -3 -3 -36 -32 -75 -64 -38 -33 -74 -64 -80 -70 -5 -6 -39 -36 -75
-66 -36 -30 -67 -57 -70 -60 -3 -3 -70 -62 -150 -130 -80 -69 -147 -127 -150
-130 -3 -3 -70 -62 -150 -130 -80 -69 -147 -127 -150 -130 -3 -3 -36 -32 -75
-65 -38 -33 -83 -72 -100 -86 -30 -27 -389 -338 -499 -433 -32 -28 -64 -56
-70 -61 -6 -6 -42 -37 -81 -70 -38 -33 -72 -62 -75 -65 -3 -3 -36 -32 -75 -65
-38 -33 -83 -72 -100 -86 -16 -14 -70 -62 -120 -105 -49 -44 -137 -119 -195
-169 -58 -49 -121 -104 -140 -121 -19 -17 -105 -92 -190 -165 -85 -73 -160
-138 -166 -144 -6 -5 -37 -32 -69 -60 -33 -27 -131 -113 -220 -190 -88 -77
-185 -160 -214 -185 -29 -25 -63 -54 -75 -65 -49 -43 -94 -82 -156 -135 -36
-30 -69 -60 -75 -66 -5 -6 -41 -38 -80 -70 -38 -33 -83 -71 -100 -85 -16 -15
-68 -60 -115 -100 -47 -41 -87 -76 -90 -79 -3 -3 -52 -45 -110 -95 -58 -49
-110 -94 -116 -100 -6 -5 -37 -32 -69 -60 -32 -27 -66 -57 -75 -65 -9 -8 -45
-39 -81 -69 -35 -30 -69 -59 -74 -65 -6 -6 -39 -36 -75 -66 -36 -30 -67 -57
-70 -60 -3 -3 -34 -30 -70 -60 -36 -30 -67 -58 -70 -61 -3 -3 -75 -66 -160
-139 -85 -74 -202 -175 -260 -225 -58 -50 -177 -153 -265 -230 -246 -212 -276
-239 -294 -255 -9 -9 -61 -54 -116 -100 -55 -47 -102 -87 -105 -91 -3 -3 -43
-38 -90 -79 -47 -40 -86 -75 -88 -79 -1 -3 519 -5 1155 -5 1216 1 1219 2 1321
46 50 22 121 68 150 97 9 9 64 57 122 107 58 49 107 91 110 94 3 3 41 36 85
74 115 98 195 168 221 191 12 11 46 40 75 65 66 56 144 123 184 159 17 15 109
94 205 176 96 83 182 157 190 165 9 8 41 36 71 61 30 26 72 62 94 81 22 20
146 126 275 238 129 111 260 224 290 250 30 27 73 64 95 83 56 49 281 243 400
346 116 99 153 132 169 146 6 6 40 35 76 65 36 30 70 60 75 66 6 6 41 37 80
70 38 32 75 64 81 69 6 6 37 33 69 60 71 60 529 457 565 488 14 13 75 65 135
117 61 52 112 97 115 100 4 5 71 62 174 150 16 14 34 30 40 35 6 6 58 50 116
100 58 49 107 92 110 95 3 3 36 32 75 65 70 61 129 112 149 130 6 6 58 51 116
100 58 50 107 92 110 95 3 3 70 61 150 130 80 68 147 127 150 130 3 3 52 45
110 95 58 49 119 101 135 116 17 15 89 78 160 139 72 62 143 124 160 138 16
15 77 67 135 117 58 49 111 95 118 102 7 7 33 29 59 50 26 21 56 47 67 58 25
24 120 106 236 205 47 40 103 88 126 109 43 38 75 66 169 146 32 28 97 84 144
125 47 41 97 83 110 95 14 11 32 27 40 35 9 8 61 53 116 100 162 138 167 143
222 198 52 52 108 151 125 222 10 43 45 240 53 295 2 22 7 51 10 65 5 26 10
54 21 125 3 22 8 49 9 60 5 30 73 425 80 465 15 92 25 148 29 175 8 50 16 97
26 155 5 30 11 71 14 90 6 37 43 261 50 295 5 25 24 147 31 199 3 21 7 41 9
45 2 3 7 31 10 62 4 31 9 67 12 80 2 13 7 40 10 59 3 19 7 46 10 60 2 14 7 41
10 60 3 19 7 45 9 58 4 24 -4 28 -21 9z"/>
<path d="M9464 5259 c-32 -28 -75 -65 -94 -83 -19 -17 -64 -55 -100 -85 -36
-30 -69 -60 -75 -65 -5 -6 -26 -24 -45 -40 -19 -15 -53 -45 -75 -65 -22 -20
-85 -74 -140 -121 -55 -47 -102 -87 -105 -91 -3 -3 -77 -68 -165 -143 -88 -76
-173 -150 -190 -164 -16 -15 -79 -70 -140 -122 -60 -52 -112 -97 -115 -100 -3
-3 -36 -32 -75 -65 -38 -33 -75 -64 -81 -70 -6 -5 -33 -29 -61 -52 -27 -24
-61 -53 -75 -65 -13 -13 -51 -45 -83 -73 -57 -49 -749 -648 -910 -788 -44 -39
-104 -91 -133 -116 -30 -25 -64 -55 -76 -66 -13 -11 -36 -31 -52 -45 -16 -14
-76 -66 -134 -116 -58 -50 -118 -101 -134 -115 -16 -13 -41 -35 -56 -49 -15
-14 -53 -47 -85 -75 -111 -95 -530 -458 -565 -489 -19 -17 -82 -71 -140 -121
-58 -49 -110 -94 -116 -100 -6 -5 -37 -32 -69 -60 -32 -27 -63 -54 -69 -60 -9
-8 -85 -74 -260 -225 -16 -14 -34 -30 -40 -35 -6 -6 -45 -39 -86 -75 -41 -35
-80 -69 -86 -74 -6 -6 -32 -29 -58 -51 -27 -22 -60 -50 -75 -63 -14 -13 -48
-42 -75 -65 -26 -23 -61 -53 -76 -67 -15 -14 -40 -36 -56 -49 -204 -172 -294
-253 -289 -260 2 -3 543 -5 1202 -4 1086 1 1203 3 1239 18 34 14 110 60 124
75 4 5 290 251 460 396 14 12 66 57 115 100 50 44 118 102 150 130 33 28 82
70 109 93 27 23 54 48 61 54 7 7 32 28 55 47 24 19 50 42 59 51 9 8 66 58 126
109 61 52 126 109 145 126 19 17 76 66 125 109 50 42 115 99 145 125 30 27 66
58 80 70 14 12 36 31 50 43 14 12 99 87 190 166 276 240 292 254 351 308 72
67 114 145 135 248 1 6 11 57 22 115 12 58 28 146 37 195 8 50 17 101 20 115
7 34 59 342 71 415 2 17 6 41 9 55 3 14 7 41 10 60 3 19 10 60 15 90 5 30 12
71 15 90 3 19 8 46 10 60 12 69 97 588 100 605 1 11 6 43 10 70 4 28 9 52 10
55 2 3 7 33 10 65 4 33 9 62 10 65 2 3 6 26 10 50 7 48 12 83 19 115 2 11 7
42 10 69 4 27 9 53 12 58 11 17 -5 6 -62 -43z"/>
</g>
</svg>
