<svg enable-background="new 0 0 811.26 907.7" viewBox="0 0 811.26 907.7" xmlns="http://www.w3.org/2000/svg"><path d="m-115.25-179.55c-61.13 54.58-107.2 130.78-144.54 244.31s-65.72 264.18-4.59 363.52 211.79 147.38 322.7 107.42 182.09-167.46 260.69-266.8 164.62-170.52 186.46-263.31c22.05-93.01-20.52-207.63-99.12-262.22s-193.22-49.12-288.85-29.69c-95.42 19.21-171.62 52.18-232.75 106.77z" fill="#f7f7f7" transform="translate(300 300)"/><path d="m455.48 194.59 347.87 365.47-607.51 118.4z" fill="none" stroke="#e5e5e5" stroke-linecap="round" stroke-linejoin="round" stroke-width="4.3637"/><path d="m125.28 491.97-28.51 376.83 37.55 8.07 89.2-279.94z" fill="#777"/><path d="m116.58 606.91 8.7-114.94 98.24 104.96-21.2 66.52c-25.49-23.31-56.45-46.68-85.74-56.54z" fill="#383838"/><path d="m104.01 45.7h573.9v360.24h-573.9z" fill="#fff" transform="matrix(-1 0 0 -1 781.911 451.6342)"/><path d="m677.91 287.74c-57.39 0-57.39-102-114.78-102s-57.39 102-114.78 102-57.39-102-114.78-102-57.39 102-114.78 102-57.39-102-114.78-102" fill="none" stroke="#1ca3c9" stroke-linecap="round" stroke-linejoin="round" stroke-width="5.14"/><path d="m127.01 868.8c13.97 0 48.8 1.74 70.69 38.89-22.89 0-100.93 0-100.93 0v-38.89z" fill="#777"/><circle cx="183.04" cy="204.03" fill="#f5bc10" r="40.48"/><path d="m204.07 192.62c-.56-4.14.56-7.71 2.48-7.97 1.93-.26 3.94 2.89 4.5 7.03s-.56 7.71-2.48 7.97c-1.93.26-3.94-2.89-4.5-7.03z" fill="none" stroke="#333" stroke-linecap="round" stroke-linejoin="round" stroke-width="3.65"/><circle cx="183.04" cy="124.36" fill="#80c228" r="25.31"/><path d="m350.53 757.3c13.97 0 48.8 1.74 70.69 38.89-22.89 0-100.93 0-100.93 0v-38.89z" fill="#c2c2c2"/><path clip-rule="evenodd" d="m126.98 186.46c0-16.69-13.53-30.21-30.21-30.21s-30.21 13.53-30.21 30.21 13.53 30.21 30.21 30.21 30.21-13.52 30.21-30.21z" fill="#eb3f33" fill-rule="evenodd"/><path clip-rule="evenodd" d="m389.18 414.29c0-16.69-13.53-30.21-30.21-30.21-16.69 0-30.21 13.53-30.21 30.21 0 16.69 13.53 30.21 30.21 30.21 16.68.01 30.21-13.52 30.21-30.21z" fill="#f5bc10" fill-rule="evenodd"/><path d="m186.9 252.69c-88.55-.01-88.55 195.21-79.85 212.47s142.56 14.64 152.41 0c9.84-14.64 13.68-212.46-72.56-212.47z" fill="#ed3f33"/><path d="m258.26 482.58c43.28 2.17 147.4 21.82 145.35 52.88-.93 14.1-49.1 225.89-49.1 225.89l-34.22-4.05s-8.79-138.7-5.53-157.54c-107.72 25.98-228.08 14.07-188.81-109.93 37.84 7.84 117.33 4.18 132.31-7.25z" fill="#c2c2c2"/><path d="m651.04 55.6 14.94 25.88h-29.88z" fill="#1ca3c9"/><circle cx="613.32" cy="67.53" fill="#ef511a" r="14.33"/><path d="m558.72 54.38h27.09v27.09h-27.09z" fill="#f5bc10" transform="matrix(-1 0 0 -1 1144.5356 135.86)"/><path d="m269.32 796.19h214.6v111.5h-214.6z" fill="#ed3f33" transform="matrix(-1 0 0 -1 753.2353 1703.8901)"/><path d="m707.87 92.47h-604.48" fill="none" stroke="#e5e5e5" stroke-linecap="round" stroke-linejoin="round" stroke-width="3.06"/><path d="m708.79 825.95c.43-11.89 16.6-61.58 45.45-112.73" fill="none" stroke="#909090" stroke-linecap="round" stroke-linejoin="round" stroke-width="3.06"/><path d="m704.07 825.99c0-67.07-50.37-199.32-92.68-227.53" fill="none" stroke="#909090" stroke-linecap="round" stroke-linejoin="round" stroke-width="3.06"/><g clip-rule="evenodd" fill-rule="evenodd"><path d="m732.96 822.53h-54.35c-8.88 0-16.07 7.2-16.07 16.07v53.02c0 8.88 7.2 16.07 16.07 16.07h54.35c8.88 0 16.07-7.2 16.07-16.07v-53.02c0-8.88-7.19-16.07-16.07-16.07z" fill="#777"/><g fill="#80c228"><path d="m685.19 671.53c0-16.9-13.7-30.6-30.6-30.6s-30.6 13.7-30.6 30.6 13.7 30.6 30.6 30.6c16.9.01 30.6-13.7 30.6-30.6z"/><path d="m767.02 610.56c0-12.44-10.09-22.53-22.53-22.53s-22.53 10.09-22.53 22.53 10.09 22.53 22.53 22.53 22.53-10.09 22.53-22.53z"/><path d="m710.24 771.67c0-22.07-17.89-39.96-39.96-39.96s-39.96 17.89-39.96 39.96 17.89 39.96 39.96 39.96c22.07-.01 39.96-17.9 39.96-39.96z"/><path d="m627.18 593.84c0-5.46-4.43-9.89-9.89-9.89s-9.89 4.43-9.89 9.89 4.43 9.89 9.89 9.89 9.89-4.43 9.89-9.89z"/><path d="m746.96 688.36 20.96 28.42 14.13-32.36 14.13-32.36-35.09 3.94-35.09 3.95z"/><path d="m773.97 774.22 22.21 9.59-2.8-24.03-2.79-24.03-19.41 14.43-19.41 14.43z"/></g></g><g fill="none" stroke-linecap="round" stroke-linejoin="round"><circle cx="159.34" cy="410.65" r="37.02" stroke="#fff" stroke-width="5.14"/><path d="m256.71 340.26c-20.14.35-36.36 16.79-36.36 37.01 0 20.45 16.57 37.02 37.02 37.02 2.42 0 4.79-.23 7.09-.68" stroke="#fff" stroke-width="5.14"/><circle cx="166.67" cy="320.82" r="37.02" stroke="#fff" stroke-width="5.14"/><path d="m198.85 254.06c1.63 18.94 17.52 33.8 36.88 33.8.88 0 1.76-.03 2.63-.09" stroke="#fff" stroke-width="5.14"/><path d="m238.85 362.95c-3.46-19.62-8.72-38.85-16.36-54.99" stroke="#fff" stroke-width="16.23"/></g></svg>