<svg enable-background="new 0 0 524.32 425.21" viewBox="0 0 524.32 425.21" xmlns="http://www.w3.org/2000/svg"><path d="m393.07 90.57c34.56 31.52 72.9 62.31 76.68 96.96s-26.91 73.08-61.48 99.82c-34.56 26.73-73.01 41.75-124.7 55.02s-116.59 24.7-154.84-2.03-49.86-91.61-34.29-141.01c15.48-49.5 58.16-83.32 96.41-114.84s72.07-60.55 104.51-59.08c32.36 1.57 63.14 33.64 97.71 65.16z" fill="#f7f7f7"/><path d="m366.51 1.53-1.44-.52-64.16 178.56c-.18.49-.09 1.04.23 1.45s.83.64 1.35.59l220.44-19.78c.59-.05 1.1-.44 1.3-1s.07-1.18-.35-1.6l-156.28-158.77c-.37-.38-.9-.53-1.42-.42-.51.11-.93.48-1.11.98l1.44.51-1.09 1.07 154.01 156.47-214.83 19.28 63.35-176.3-1.44-.52-1.09 1.07z" fill="#e5e5e5"/><path d="m125.28 73.3h355.32v195.43h-355.32z" fill="#fff"/><path d="m139.85 78.67-8.11 14.04h16.21z" fill="#80c228"/><circle cx="160.31" cy="85.14" fill="#1ca3c9" r="7.77"/><path d="m175.23 78.01h14.7v14.7h-14.7z" fill="#ef511a"/><path d="m109.02 100.2h371.57c.84 0 1.53-.69 1.53-1.53 0-.85-.69-1.53-1.53-1.53h-371.57c-.85 0-1.53.69-1.53 1.53 0 .85.68 1.53 1.53 1.53" fill="#e5e5e5"/><path d="m484.01 344.21c-.05-.62-.18-1.27-.37-2.03-.71-2.81-2.32-7.08-4.65-12.24-3.49-7.71-8.59-17.32-14.62-26.2-6.04-8.88-12.96-17.06-20.35-21.9-.92-.6-2.16-.35-2.77.58-.6.92-.35 2.16.58 2.77 4.7 3.07 9.49 7.92 13.95 13.58 6.7 8.48 12.71 18.77 17.06 27.56 2.18 4.39 3.94 8.42 5.18 11.64.62 1.61 1.11 3.02 1.44 4.16.34 1.13.52 2.02.55 2.43.09 1.1 1.06 1.92 2.16 1.82 1.11-.1 1.93-1.07 1.84-2.17z" fill="#80c228"/><path d="m491.44 345.63c0-.67.11-1.74.35-3.03.82-4.56 3.13-12 6.43-19.58s7.63-15.34 12.38-20.65c.74-.82.66-2.09-.16-2.82-.82-.74-2.09-.66-2.82.16-5.94 6.68-10.9 16.23-14.45 25.05-1.78 4.41-3.19 8.64-4.17 12.24-.49 1.8-.87 3.44-1.13 4.89s-.41 2.68-.41 3.75c0 1.1.9 2 2 2 1.09-.01 1.98-.91 1.98-2.01z" fill="#80c228"/><path d="m125.64 324.11c0-30.7 60.61-79.51 77.16-79.51 17.97 0 98.56 89.27 98.56 97.4s-32.76.44-34.85-2.26c-2.09-2.71-52.31-30.24-55.64-30.24s-16.73 16.19-17.71 19.15-67.52-4.54-67.52-4.54z" fill="#777"/><path d="m344.32 355.35c0-7.6.94-26.47 21.1-38.35v54.76h-21.1z" fill="#c2c2c2"/><path clip-rule="evenodd" d="m108.4 201.17c.01-8.22 6.68-14.87 14.9-14.85 8.22.01 14.87 6.68 14.85 14.9-.01 8.21-6.67 14.85-14.87 14.85-8.22 0-14.88-6.66-14.88-14.88z" fill="#f5bc10" fill-rule="evenodd"/><path clip-rule="evenodd" d="m18.79 410.34c0-8.21 6.66-14.88 14.88-14.88s14.88 6.66 14.88 14.88-6.66 14.88-14.88 14.88-14.88-6.67-14.88-14.88z" fill="#f5bc10" fill-rule="evenodd"/><path clip-rule="evenodd" d="m47.94 206.57c-2.7-11-13.8-17.72-24.8-15.02s-17.72 13.8-15.02 24.8 13.8 17.72 24.8 15.02c11-2.71 17.72-13.81 15.02-24.8z" fill="#f5bc10" fill-rule="evenodd"/><path d="m40.6 204.01 1.38-.34c-.24-.96-.62-1.81-1.12-2.5-.26-.34-.55-.65-.91-.91-.36-.25-.83-.46-1.39-.46-.17 0-.34.02-.51.06-.42.1-.79.34-1.05.61-.39.41-.59.87-.72 1.32-.13.46-.18.94-.18 1.43 0 .58.07 1.19.22 1.81.23.97.61 1.82 1.12 2.51.26.34.55.65.92.91.36.25.83.46 1.4.46.17 0 .34-.02.51-.06.42-.1.79-.33 1.05-.6.39-.41.6-.86.73-1.32s.18-.94.18-1.44c0-.59-.08-1.2-.23-1.84l-1.4.36-1.38.34c.1.42.15.82.15 1.15 0 .38-.07.67-.11.76l-.02.03.3.19-.22-.28-.08.08.3.19-.22-.28.42.53-.16-.65c-.11.02-.2.08-.26.12l.42.53-.16-.65.17.68v-.7l-.17.02.17.68v-.7.55l.19-.52-.19-.03v.55l.19-.52-.09.25.12-.24-.03-.01-.09.25.12-.24-.01.02.01-.02-.01.02.01-.02c-.03-.01-.23-.19-.4-.5-.18-.31-.36-.74-.47-1.22-.1-.42-.14-.82-.14-1.16 0-.39.07-.69.11-.78l.02-.03-.31-.19.22.29.08-.09-.31-.19.23.28-.43-.54.16.66c.11-.03.21-.08.27-.13l-.43-.54.16.66-.17-.69v.71l.17-.02-.17-.69v.71-.56l-.19.53.19.03v-.56l-.19.53.09-.26-.13.25.03.01.09-.26-.13.25.04-.09-.05.09.04-.09-.05.09.03.03c.08.06.26.27.42.57.17.3.32.7.43 1.14z" fill="#333"/><path d="m2.76 154.41c2.43-1.16 5.33-.14 6.5 2.28l11.72 24.43c1.16 2.42.14 5.33-2.28 6.49-2.42 1.16-5.33.14-6.49-2.28l-11.73-24.43c-1.16-2.42-.14-5.33 2.28-6.49z" fill="#80c228"/><path d="m7.72 159.62c.44-.21.96-.03 1.16.4l4.17 8.69c.21.43.02.95-.41 1.16-.43.21-.95.02-1.16-.41l-4.17-8.69c-.21-.42-.02-.94.41-1.15z" fill="#fff"/><path clip-rule="evenodd" d="m438.47 303.3-6.54 8.87-4.41-10.1-4.41-10.09 10.95 1.23 10.95 1.22z" fill="#80c228" fill-rule="evenodd"/><path clip-rule="evenodd" d="m460.26 270.05 5.53 9.53h-11.02-11.02l5.49-9.55 5.49-9.56z" fill="#80c228" fill-rule="evenodd"/><path d="m33.29 240.21c44.78-16.85 79.43 66.76 75.41 76.14-4.02 9.39-48.96 31.25-54.97 28.49-12.39-5.7-47.9-94.3-20.44-104.63z" fill="#ed3f33"/><path d="m455.08 340.41h51.02v10.57h-51.02z" fill="#c2c2c2"/><path d="m461.9 350.98h37.38v34.4h-37.38z" fill="#777"/><circle cx="501.66" cy="293.29" fill="#80c228" r="6.69"/><path d="m476.31 287.28c6.13 0 11.09 4.97 11.09 11.09s-4.97 11.09-11.09 11.09-11.09-4.97-11.09-11.09 4.96-11.09 11.09-11.09z" fill="#80c228"/><circle cx="515.05" cy="318.15" fill="#80c228" r="6.69"/><path d="m244.51 136.39v2.57c10.1 0 19.21 4.09 25.83 10.7 6.62 6.62 10.7 15.74 10.7 25.83 0 10.1-4.09 19.21-10.7 25.83-6.62 6.62-15.74 10.7-25.83 10.7-10.1 0-19.21-4.09-25.83-10.7-6.62-6.62-10.7-15.74-10.7-25.83 0-10.1 4.09-19.21 10.7-25.83 6.62-6.62 15.74-10.7 25.83-10.7v-2.57-2.57c-23.02 0-41.67 18.66-41.67 41.67 0 23.02 18.66 41.67 41.67 41.67 23.02 0 41.67-18.66 41.67-41.67 0-23.02-18.66-41.67-41.67-41.67z" fill="#1ca3c9"/><path d="m339.16 146.22-.67-2.48-75.87 20.33c-.89.24-1.58.93-1.82 1.82s.02 1.83.67 2.48l55.54 55.54c.65.65 1.6.9 2.48.67.89-.24 1.58-.93 1.82-1.82l20.33-75.87c.24-.89-.02-1.83-.67-2.48s-1.6-.9-2.48-.67l.67 2.48-2.48-.67-19.18 71.57-49.25-49.25 71.57-19.18-.66-2.47-2.48-.67z" fill="#80c228"/><path d="m328.39 139.39v2.57h69.5v66.92h-66.93v-69.49h-2.57v2.57-2.57h-2.57v72.06c0 .68.27 1.34.75 1.82s1.14.75 1.82.75h72.07c.68 0 1.34-.27 1.82-.75s.75-1.14.75-1.82v-72.06c0-.68-.27-1.34-.75-1.82s-1.14-.75-1.82-.75h-72.07c-.68 0-1.34.27-1.82.75s-.75 1.14-.75 1.82z" fill="#ef511a"/><g fill="#f7f7f7"><path d="m52.75 238.11-28.31 47.7c-.72 1.22-.32 2.8.9 3.52s2.8.32 3.52-.9l28.31-47.7c.72-1.22.32-2.8-.9-3.52s-2.8-.32-3.52.9"/><path d="m77.01 254.5-39.92 67.26c-.72 1.22-.32 2.8.9 3.52s2.8.32 3.52-.9l39.92-67.26c.72-1.22.32-2.8-.9-3.52-1.22-.73-2.8-.32-3.52.9"/><path d="m94.96 280.04-37.35 62.94c-.72 1.22-.32 2.8.9 3.52s2.8.32 3.52-.9l37.35-62.94c.72-1.22.32-2.8-.9-3.52-1.22-.73-2.79-.32-3.52.9"/></g><path d="m53.4 258.44c6.16 3.59 12.25 9.34 17.66 16.11 2.8 3.5 7.91 4.07 11.41 1.27s4.07-7.91 1.27-11.41c-6.29-7.84-13.6-14.96-22.12-19.97-3.87-2.27-8.84-.97-11.1 2.9-2.28 3.86-.98 8.84 2.88 11.1z" fill="#fff"/><path d="m149 281.82c-13.17 14.07-23.37 29.7-23.37 42.31 0 0 66.53 7.49 67.52 4.53.9-2.71 12.09-16.36 16.59-18.78-14.94-9.46-40.89-21.25-60.74-28.06z" fill="#383838"/><path d="m67.33 359.7c6.19-1.36 46.42-25.53 58.05-36.94 27.27-10.25 93.41 6.77 108.5 8.32s113.85 18.93 113.85 18.93c5.03 3.59.64 19.53-3.42 22.45h-272.53s-6.77-6.58-4.45-12.76z" fill="#c2c2c2"/></svg>