<svg enable-background="new 0 0 741.27 609.79" viewBox="0 0 741.27 609.79" xmlns="http://www.w3.org/2000/svg"><path d="m557.16 128.2c74.88 41.25 169.09 96.69 182.38 165.43s-54.23 150.91-129.07 215.22-157 111.2-226.83 99-127.39-83.42-200.6-147.85c-73-64.46-161.45-122-179.48-197.65s34.57-169.28 107.58-210.52 166.64-30.09 241.18-11 129.99 46.17 204.84 87.37z" fill="#f7f7f7"/><path d="m354.04 24.12-347.85 365.46 607.51 118.42z" fill="none" stroke="#e5e5e5" stroke-linecap="round" stroke-linejoin="round" stroke-width="4.36"/><path d="m140.11 0h392.22v360.24h-392.22z" fill="#fff"/><path d="m165.1 9.9-14.95 25.88h29.89z" fill="#1ca3c9"/><circle cx="202.81" cy="21.84" fill="#ef511a" r="14.33"/><path d="m230.32 8.69h27.09v27.09h-27.09z" fill="#f5bc10"/><path d="m119.63 46.78h413.11" fill="none" stroke="#e5e5e5" stroke-linecap="round" stroke-linejoin="round" stroke-width="3.06"/><path d="m708.66 446.31h-204.06c-17.12 0-31-13.88-31-31v-204.03c0-17.12 13.88-31 31-31h204.06c17.12 0 31 13.88 31 31v204.06c-.01 17.11-13.89 30.97-31 30.97z" fill="#80c228"/><path d="m277.58 303.14c108.16 0 108.16 217.58 97.54 236.82s-174.08 16.32-186.17.04-16.71-236.86 88.63-236.86z" fill="#ed3f33"/><circle cx="273.52" cy="207.17" fill="#f5bc10" r="58.86"/><path d="m309.7 185.71c-.86-6-3.84-10.56-6.63-10.15s-4.37 5.6-3.5 11.61 3.84 10.57 6.63 10.16 4.37-5.6 3.5-11.62z" fill="none" stroke="#333" stroke-linecap="round" stroke-linejoin="round" stroke-width="3.65"/><circle cx="241.9" cy="95.74" fill="#80c228" r="36.81"/><path clip-rule="evenodd" d="m299.96 336.72c-.01-19.52 15.81-35.34 35.33-35.35s35.34 15.81 35.35 35.33-15.81 35.34-35.33 35.35h-.01c-19.51 0-35.33-15.82-35.34-35.33z" fill="#f5bc10" fill-rule="evenodd"/><path d="m473.63 372.05 51.37-51.37 20.63 20.63 67-67 29.5 29.5 67.5-67.5 29.07 29.07" fill="none" stroke="#fff" stroke-linecap="round" stroke-linejoin="round" stroke-width="5.14"/><path d="m37.13 356.81c0-16.11 26-16.11 26-32.22s-26-16.11-26-32.22 26-16.1 26-32.21-26-16.11-26-32.22 26-16.12 26-32.23-26-16.11-26-32.22 26-16.11 26-32.22-26-16.12-26-32.23 26-16.11 26-32.23" fill="none" stroke="#1ca3c9" stroke-linecap="round" stroke-linejoin="round" stroke-width="5.14"/><path clip-rule="evenodd" d="m523.96 336.72c-.01-19.52 15.81-35.34 35.33-35.35s35.34 15.81 35.35 35.33-15.81 35.34-35.33 35.35h-.01c-19.51 0-35.33-15.82-35.34-35.33z" fill="#1ca3c9" fill-rule="evenodd"/><path d="m471.13 534.81h193v15h-193z" fill="#ed3f33"/><path d="m676.97 542.31-12.99-7.5v15z" fill="#f6f8da"/><path d="m672.09 539.5v5.63l4.88-2.82z" fill="#ed3f33"/><path d="m276.24 553.21c.62-54.06 44.63-97.55 98.69-97.55h2.42" fill="none" stroke="#fff" stroke-linecap="round" stroke-linejoin="round" stroke-width="5.14"/><path d="m254.6 307.07c43.33 33.07 51.65 95.01 18.58 138.34-18.67 24.46-47.68 38.82-78.46 38.82-3.97 0-7.94-.23-11.89-.7" fill="none" stroke="#fff" stroke-linecap="round" stroke-linejoin="round" stroke-width="5.14"/><path d="m361.63 530.31h-123v70h37z" fill="#777"/><path d="m13.63 433.31h262v167h-262z" fill="#c2c2c2"/><circle cx="144.63" cy="516.81" fill="#fff" r="18"/></svg>