<svg enable-background="new 0 0 718.05 806.44" viewBox="0 0 718.05 806.44" xmlns="http://www.w3.org/2000/svg"><path d="m161.21 166.9c-44.43 70.11-35.54 167.87-33 263.09s-1.41 188 43 218.38 137.12-1.7 220.91-10.72 158.7 5.21 213.86-25.11 91-105.24 84.64-173.66-54.57-130.77-109.87-200.74-117.37-148-197.35-165.89c-79.98-17.88-177.75 24.69-222.19 94.65z" fill="#f7f7f7"/><path d="m203.33 706.72c-112.12 0-203.33-91.22-203.33-203.33 0-112.12 91.21-203.33 203.33-203.33s203.33 91.21 203.33 203.33c0 112.11-91.21 203.33-203.33 203.33zm0-403.61c-110.43 0-200.27 89.85-200.27 200.28s89.84 200.27 200.27 200.27 200.27-89.85 200.27-200.27c0-110.43-89.84-200.28-200.27-200.28z" fill="#e5e5e5"/><path clip-rule="evenodd" d="m423.67 390.87c15.23-58.7 18-254.06-80.27-263.5-67.55-6.5-130.61 172.69-126.82 235.53 41.2 41.33 167.93 54.4 207.09 27.97z" fill="#ed3f33" fill-rule="evenodd"/><path d="m262.98 391.77c-.45 0-.9-.12-1.31-.36-1.22-.73-1.62-2.3-.89-3.52 18.62-31.25 28.89-66.99 29.7-103.36s-7.87-72.53-25.09-104.57c-.67-1.25-.2-2.81 1.05-3.48s2.81-.2 3.48 1.05c17.64 32.82 26.53 69.86 25.7 107.12-.82 37.25-11.34 73.86-30.42 105.87-.49.8-1.35 1.25-2.22 1.25z" fill="#fff"/><path d="m424.95 374.58c-.48 0-.96-.13-1.39-.41-82.08-52.93-118.53-154.83-88.63-247.81.44-1.35 1.88-2.09 3.23-1.66s2.09 1.88 1.66 3.23c-29.18 90.77 6.4 190.24 86.53 241.91 1.19.77 1.54 2.36.77 3.55-.5.77-1.33 1.19-2.17 1.19z" fill="#fff"/><path d="m320.78 403.67c-.45 0-.89-.2-1.18-.56-.38-.46-.45-1.09-.2-1.63l175.81-371.13c.23-.48.68-.8 1.2-.86s1.04.15 1.37.56l219.93 271.93c.33.41.43.95.26 1.45s-.57.87-1.08 1l-395.74 99.2c-.12.02-.25.04-.37.04zm176.15-369.81-173.38 366 390.27-97.83z" fill="#e5e5e5"/><circle cx="364.58" cy="53.33" fill="#f5bc10" r="49.76"/><path d="m307.43 68.82c-1.18 0-2.17-.93-2.24-2.12-.07-1.24.88-2.3 2.12-2.36 18.42-1.01 35.87-7.49 50.48-18.75s25.33-26.48 31-44.03c.38-1.18 1.64-1.83 2.83-1.45 1.18.38 1.83 1.65 1.45 2.83-5.95 18.42-17.2 34.4-32.54 46.21-15.33 11.81-33.65 18.61-52.98 19.67z" fill="#333"/><path d="m393.7 55.13c-.21 0-.4-.02-.58-.04-3.76-.51-5.85-5.69-4.97-12.31.55-4.19 2.27-7.84 4.47-9.52 1.42-1.08 2.73-1.17 3.59-1.06 1.19.16 3.37.98 4.52 4.67.67 2.16.83 4.88.46 7.66-.56 4.19-2.27 7.83-4.47 9.51-1.14.86-2.2 1.09-3.02 1.09zm1.87-18.49c-.53.12-2.39 2.35-2.96 6.73-.58 4.37.62 7.02 1.17 7.28.51-.12 2.37-2.35 2.96-6.72.59-4.4-.61-7.03-1.17-7.29z" fill="#333"/><path d="m329.17 545.44c-10 17-39.38 71.54-44.28 77.6s-171.28 109.06-171.28 109.06c4.2 10.25 11.65 62.92-17.24 74.34-5.13-17.48-26.57-94.61-26.57-94.61l22.6-5.83 103.24-123.74s7.2-165.84 28.87-186.12c21.21 11.42 104.66 149.3 104.66 149.3z" fill="#777"/><path d="m238.32 654.01c25.37-16.15 44.94-28.94 46.57-31 4.9-6.06 34.26-60.59 44.28-77.6 0 0-83.45-137.88-104.66-149.3-14.46 13.53-22.46 91.47-26.18 142.11 8.46 43.38 21.11 85.58 39.99 115.79z" fill="#383838"/><path d="m224.51 396.14c18 11.29 133.87 42.57 164.64 46.16 13.34 22.06 133.9 293.89 133.9 293.89 13.85-10.77 64.63-25.65 81.55-5.64-16.41 10.77-99.5 67.18-99.5 67.18s-278.05-360.04-280.59-401.59z" fill="#c2c2c2"/><path d="m403.12 137.04c-.21 0-.43-.05-.63-.14-.49-.22-.82-.69-.87-1.22l-1.39-14.99c-.05-.53.19-1.05.63-1.36s1.01-.36 1.49-.14l13.67 6.29c.49.22.82.69.87 1.22s-.19 1.05-.63 1.36l-12.28 8.7c-.25.19-.55.28-.86.28zm.34-14.04.91 9.81 8.04-5.7z" fill="#1ca3c9"/><path d="m355.23 56.58h65.39v272.22h-65.39z" fill="#1ca3c9" transform="matrix(.1108 -.9938 .9938 .1108 153.447 556.8888)"/><path d="m505.29 191.75-131.15-14.62c-2.2-.25-4.18 1.34-4.43 3.54l-2.2 19.74c-.25 2.2 1.34 4.18 3.54 4.43l131.15 14.62c2.2.25 4.18-1.34 4.43-3.54l2.2-19.74c.24-2.2-1.34-4.18-3.54-4.43z" fill="#80c228"/><path d="m275.51 160.28h27.88v42.87h-27.88z" fill="#80c228" transform="matrix(.1108 -.9938 .9938 .1108 76.7837 449.2518)"/><path d="m392.96 239.77-73.79-103.95c-5.97-8.41-17.62-10.39-26.03-4.42l-13.18 9.35c-8.41 5.97-10.39 17.62-4.42 26.03l73.79 103.95c5.97 8.41 17.62 10.39 26.03 4.42l13.18-9.35c8.41-5.96 10.39-17.62 4.42-26.03z" fill="#f5bc10"/><path d="m593.43 165.58-57.55-24.62c-7.35-3.14-15.85.27-19 7.61l-24.62 57.55c-3.14 7.35.26 15.85 7.61 19l57.56 24.62c7.35 3.14 15.85-.27 18.99-7.61l24.62-57.56c3.15-7.34-.26-15.85-7.61-18.99z" fill="#ef511a"/><g fill="#fff"><path d="m549.76 215.31c-11.69 0-21.21-9.51-21.21-21.21s9.51-21.21 21.21-21.21c11.69 0 21.21 9.51 21.21 21.21s-9.52 21.21-21.21 21.21zm0-37.92c-9.22 0-16.72 7.5-16.72 16.71s7.5 16.71 16.72 16.71 16.71-7.5 16.71-16.71-7.49-16.71-16.71-16.71z"/><path d="m518.65 208.81c-.89 0-1.73-.53-2.08-1.41-.46-1.15.1-2.46 1.25-2.92l13.53-5.42c1.15-.46 2.46.1 2.92 1.25s-.1 2.46-1.25 2.92l-13.53 5.42c-.28.11-.56.16-.84.16z"/><path d="m575.17 241.06h-258.08c-5 0-9.05 4.05-9.05 9.05v126.9c0 5 4.05 9.05 9.05 9.05h258.08c5 0 9.05-4.05 9.05-9.05v-126.9c0-4.99-4.05-9.05-9.05-9.05z"/></g><path clip-rule="evenodd" d="m368.57 382.71c.01-18.95-15.35-34.33-34.3-34.34s-34.33 15.35-34.34 34.3 15.35 34.33 34.3 34.34h.02c18.95 0 34.31-15.36 34.32-34.3z" fill="#f5bc10" fill-rule="evenodd"/><path clip-rule="evenodd" d="m625.05 342c0-18.95-15.37-34.32-34.32-34.32-18.96 0-34.32 15.37-34.32 34.32s15.37 34.32 34.32 34.32c18.95.01 34.31-15.35 34.32-34.3z" fill="#f5bc10" fill-rule="evenodd"/><path d="m307.82 269.44.23-19.34c0-4.97 4.03-9 9-9h258.12c4.97 0 9 4.03 9 9v24.9c-79.77-17-275.53-5.4-276.35-5.56z" fill="#eaeaea"/><path d="m353.05 233.22c-.7 0-1.39-.33-1.83-.95l-50.04-70.48c-.72-1.01-.48-2.41.53-3.13s2.41-.48 3.13.53l50.04 70.48c.72 1.01.48 2.41-.53 3.13-.39.29-.85.42-1.3.42z" fill="#fff"/><path d="m591.9 216.56h-290.63c-4.51 0-8.17 3.66-8.17 8.17v21.56c0 4.51 3.66 8.17 8.17 8.17h290.63c4.51 0 8.17-3.66 8.17-8.17v-21.56c0-4.51-3.66-8.17-8.17-8.17z" fill="#fff"/><path d="m484.46 180.89c-1.13 0-2.24-.3-3.22-.86l-15.66-9c-1.5-.86-2.57-2.26-3.02-3.92s-.22-3.41.64-4.9c.57-.98 1.39-1.8 2.37-2.37l15.66-9c1.49-.86 3.24-1.09 4.9-.64 1.67.45 3.06 1.52 3.92 3.02.54.94.84 2.01.86 3.09v.05 18.08c.01 3.56-2.89 6.45-6.45 6.45zm0-25.77c-.23 0-.45.06-.66.18l-15.66 9c-.2.11-.36.28-.48.48-.18.31-.22.66-.13 1s.31.63.62.8l15.66 9c.2.12.43.18.66.18.35 0 .68-.14.93-.39s.39-.58.39-.93v-18.04c-.01-.21-.07-.42-.18-.61-.18-.31-.46-.52-.8-.62-.12-.04-.24-.05-.35-.05z" fill="#ed3f33"/></svg>