<svg enable-background="new 0 0 29.59 25.28" viewBox="0 0 29.59 25.28" xmlns="http://www.w3.org/2000/svg"><g fill="#f03f33"><path d="m29.59 0c-.21 1.25-.39 2.35-.58 3.44-.17 1.01-.35 2.02-.51 3.03-.07.42-.2.75-.54 1.05-6.81 5.8-13.61 11.61-20.42 17.4-.23.19-.59.33-.89.33-2 .03-4 .02-5.99.02-.16 0-.32 0-.66 0 9.9-8.45 19.67-16.8 29.59-25.27z"/><path d="m27.52 12.09c-.22 1.35-.42 2.54-.62 3.73-.17 1.01-.34 2.02-.54 3.03-.05.23-.18.49-.36.65-2.13 1.84-4.28 3.67-6.43 5.49-.16.13-.38.27-.57.28-2.24.02-4.48.01-6.9.01 5.18-4.44 10.24-8.76 15.42-13.19z"/></g></svg>